<?xml version="1.0" encoding="UTF-8" standalone="no" ?>
<!DOCTYPE svg PUBLIC "-//W3C//DTD SVG 1.1//EN" "http://www.w3.org/Graphics/SVG/1.1/DTD/svg11.dtd">
<svg xmlns="http://www.w3.org/2000/svg" xmlns:xlink="http://www.w3.org/1999/xlink" version="1.1" width="1280" height="1024" viewBox="0 0 1280 1024" xml:space="preserve">
<desc>Created with Fabric.js 5.3.0</desc>
<defs>
</defs>
<g transform="matrix(1 0 0 1 640 512)" id="background-logo"  >
<rect style="stroke: none; stroke-width: 0; stroke-dasharray: none; stroke-linecap: butt; stroke-dashoffset: 0; stroke-linejoin: miter; stroke-miterlimit: 4; fill: rgb(255,255,255); fill-opacity: 0; fill-rule: nonzero; opacity: 1;"  paint-order="stroke"  x="-640" y="-512" rx="0" ry="0" width="1280" height="1024" />
</g>
<g transform="matrix(1.9211538461538462 0 0 1.9211538461538462 640 406.1462248395939)" id="logo-logo"  >
<g style=""  paint-order="stroke"   >
		<g transform="matrix(1.9490153526004368 0 0 1.949015352600437 -36.608508233542864 6.562641540310153)"  >
<linearGradient id="SVGID_2_126916" gradientUnits="userSpaceOnUse" gradientTransform="matrix(1 0 0 1 0 0)"  x1="136.7614323" y1="84.226946" x2="200.6724113" y2="84.226946">
<stop offset="0%" style="stop-color:rgb(160,238,164);stop-opacity: 1"/>
<stop offset="9.902420000000001%" style="stop-color:rgb(138,234,143);stop-opacity: 1"/>
<stop offset="32.88547%" style="stop-color:rgb(99,227,105);stop-opacity: 1"/>
<stop offset="55.76103%" style="stop-color:rgb(69,222,76);stop-opacity: 1"/>
<stop offset="78.27452000000001%" style="stop-color:rgb(51,219,60);stop-opacity: 1"/>
<stop offset="100%" style="stop-color:rgb(47,218,55);stop-opacity: 1"/>
</linearGradient>
<path style="stroke: none; stroke-width: 1; stroke-dasharray: none; stroke-linecap: butt; stroke-dashoffset: 0; stroke-linejoin: miter; stroke-miterlimit: 4; fill: url(#SVGID_2_126916); fill-rule: nonzero; opacity: 1;"  paint-order="stroke"  transform=" translate(-168.71692156775538, -84.22694589999998)" d="M 179.054516 112.5475845 C 178.5748706 111.9541972 177.7016605 111.8619425 177.1082544 112.3446843 C 172.8406324 115.809826 164.95721369999998 121.9468244 160.13307989999998 124.1175485 C 157.0737949 125.491835 154.6848011 125.7224341 153.22434019999997 124.77856919999999 C 151.68085759999997 123.77930649999999 151.35802259999997 121.59319409999999 151.35802259999997 119.93598829999999 C 151.35802259999997 116.48315729999999 149.68540979999997 114.71830859999999 148.34178719999997 113.29778209999999 C 147.19186939999997 112.0833086 146.35863129999996 111.20700199999999 146.43549759999996 109.42376239999999 C 146.60459979999996 105.49126719999998 144.18177059999996 104.47661619999998 142.23245009999997 103.66178769999999 C 141.38999779999997 103.31131009999999 140.58136209999998 102.9731432 139.88340949999997 102.42276799999999 C 141.24855689999998 100.1444009 142.53683789999997 98.59176049999999 143.68675569999996 97.2020106 C 146.82906239999997 93.41093749999999 148.36944859999997 91.06801469999999 146.23257869999998 83.30150939999999 C 144.43697219999999 76.78318169999999 145.1902663 66.24325699999999 151.08437379999998 58.507453199999986 C 157.19063319999998 50.49180779999999 167.52148369999998 46.427123499999986 181.7940248 46.427123499999986 L 191.36850349999997 46.427123499999986 C 191.94654009999996 48.398025099999984 193.76673029999998 49.833864699999985 195.92206609999997 49.833864699999985 C 198.54781429999997 49.833864699999985 200.67241109999998 47.706227799999986 200.67241109999998 45.083463399999985 C 200.67241109999998 42.46084909999998 198.54781429999997 40.333212199999984 195.92206609999997 40.333212199999984 C 193.79441039999998 40.333212199999984 191.99572619999998 41.73211999999998 191.39002829999995 43.65993439999998 L 181.79402469999997 43.65993439999998 C 166.61137909999997 43.65993439999998 155.53954509999997 48.090559599999985 148.88292929999997 56.828703799999985 C 141.45455339999998 66.57842129999999 142.04490059999998 78.51732889999998 143.56376189999997 84.03324119999999 C 145.42086529999997 90.77593759999999 144.28939459999998 92.14114119999999 141.55602219999997 95.43708679999999 C 140.24929399999996 97.01442359999999 138.62586739999998 98.97609219999998 136.93788509999996 101.9891936 C 136.65502209999997 102.493479 136.71651899999995 103.12072049999999 137.09161779999997 103.56037509999999 C 138.34608209999996 105.03922689999999 139.91108949999997 105.69108969999999 141.16553509999997 106.21684359999999 C 142.99803599999998 106.98242959999999 143.75746659999996 107.299128 143.67138609999998 109.30380879999998 C 143.54531479999997 112.25858479999998 145.0242228 113.82353599999999 146.33095099999997 115.20105029999999 C 147.54236559999998 116.4800796 148.59083329999996 117.58691019999999 148.59083329999996 119.93598829999999 C 148.59083329999996 123.29964229999999 149.67311769999995 125.7778319 151.72390699999997 127.10302599999999 C 152.77543359999996 127.78251259999999 154.00837309999997 128.1206796 155.41964779999998 128.1206796 C 157.11992199999997 128.1206796 159.0753978 127.62570229999999 161.27070559999999 126.63867509999999 C 166.12251949999998 124.45571539999999 173.51090459999998 118.82908259999999 178.851578 114.49378969999998 C 179.4449841 114.01112299999998 179.53722 113.14097169999998 179.0545157 112.54758439999998 Z M 195.9220663 43.1004015 C 197.0166426 43.1004015 197.90522220000003 43.9920213 197.90522220000003 45.083463599999995 C 197.90522220000003 46.17805859999999 197.01664250000002 47.06667579999999 195.9220663 47.06667579999999 C 195.3471074 47.06667579999999 194.82749 46.820688399999995 194.4708196 46.427123599999994 C 194.1418293 46.07356839999999 193.941988 45.60313719999999 193.941988 45.08346349999999 C 193.941988 44.527008099999996 194.17258710000002 44.019645 194.5476859 43.65993449999999 C 194.90435630000002 43.315537199999994 195.3870793 43.10040139999999 195.92206620000002 43.10040139999999 Z" stroke-linecap="round" />
</g>
		<g transform="matrix(1.9490153526004368 0 0 1.949015352600437 -36.60798082555988 6.562659568702259)"  >
<linearGradient id="SVGID_3_126917" gradientUnits="userSpaceOnUse" gradientTransform="matrix(1 0 0 1 0 0)"  x1="137.5544749" y1="84.2269551" x2="199.8799096" y2="84.2269551">
<stop offset="0%" style="stop-color:rgb(86,225,93);stop-opacity: 1"/>
<stop offset="20.819029999999998%" style="stop-color:rgb(90,226,97);stop-opacity: 1"/>
<stop offset="42.39593%" style="stop-color:rgb(103,228,110);stop-opacity: 1"/>
<stop offset="64.31582999999999%" style="stop-color:rgb(134,234,139);stop-opacity: 1"/>
<stop offset="86.33330000000001%" style="stop-color:rgb(173,240,176);stop-opacity: 1"/>
<stop offset="100%" style="stop-color:rgb(203,246,205);stop-opacity: 1"/>
</linearGradient>
<path style="stroke: none; stroke-width: 1; stroke-dasharray: none; stroke-linecap: butt; stroke-dashoffset: 0; stroke-linejoin: miter; stroke-miterlimit: 4; fill: url(#SVGID_3_126917); fill-rule: nonzero; opacity: 1;"  paint-order="stroke"  transform=" translate(-168.7171921700276, -84.22695515000001)" d="M 155.4196409 127.3282388 C 154.1674554 127.3282388 153.06878039999998 127.02851469999999 152.15401939999998 126.437469 C 150.3414129 125.26621229999999 149.383313 123.01800539999999 149.383313 119.93596629999999 C 149.383313 117.2715066 148.18032599999998 116.0013001 146.9067475 114.65657719999999 C 145.6499186 113.33164419999999 144.3511327 111.96248779999999 144.4631284 109.33749759999999 C 144.57296829999999 106.78149579999999 143.3394672 106.26618269999999 141.47235529999998 105.48619249999999 L 141.45571619999998 105.47922729999999 C 140.22127529999997 104.96181359999999 138.82221289999998 104.3754113 137.6960088 103.04771439999999 C 137.5354779 102.85954379999998 137.50916489999997 102.5906656 137.6290656 102.37695599999999 C 139.2855635 99.41995859999999 140.88285729999998 97.491929 142.16627559999998 95.9426728 C 145.00088479999997 92.5246464 146.29475079999997 90.964445 144.3277494 83.8228086 C 142.8472606 78.446128 142.27329619999998 66.8113944 149.5132744 57.309002500000005 C 156.0120684 48.777977500000006 166.8728925 44.45237650000001 181.7940326 44.45237650000001 L 191.9717158 44.45237650000001 L 192.1460665 43.89737290000001 C 192.6669076 42.23954830000001 194.1844334 41.12567150000001 195.9220813 41.12567150000001 C 198.1044507 41.12567150000001 199.8799095 42.90113030000001 199.8799095 45.08344440000001 C 199.8799095 47.26586900000001 198.1044507 49.04132790000001 195.9220813 49.04132790000001 C 194.1786844 49.04132790000001 192.6189252 47.87460410000001 192.12893 46.20406530000001 L 191.9619314 45.63468910000001 L 181.7940327 45.63468910000001 C 167.2626114 45.63468910000001 156.7183162 49.80418150000001 150.4539615 58.02719060000001 C 144.3956325 65.97855740000001 143.6227733 76.81163130000002 145.46854739999998 83.51191820000001 C 147.50547709999998 90.91535710000001 146.12874739999998 93.01397840000001 143.07661439999998 96.69635010000002 L 143.0532313 96.72454250000001 C 141.8988901 98.1195696 140.59054089999998 99.7006666 139.20363989999998 102.01542970000001 L 138.84537509999998 102.61333000000002 L 139.3926396 103.04495040000002 C 140.1807005 103.66651020000002 141.0689827 104.03610730000003 141.9280222 104.39343230000001 C 143.8256482 105.18668950000001 145.789167 106.00736520000001 145.6437273 109.38968110000002 C 145.5526271 111.50466510000003 146.5752932 112.58482150000002 147.7594852 113.83545920000002 L 147.7699883 113.84651500000001 C 149.0803276 115.23181290000001 150.5655151 116.80185410000001 150.5655151 119.93596620000001 C 150.5655151 122.59556130000001 151.3359972 124.50015250000001 152.7936557 125.4437692 C 153.51068279999998 125.9072304 154.39813579999998 126.1420566 155.4318577 126.1420566 C 156.8444083 126.141946 158.5354004 125.70402390000001 160.4578468 124.8403409 C 165.3721718 122.6290605 173.3121511 116.4477352 177.6077908 112.9599464 C 177.7423958 112.85038290000001 177.8839659 112.8274973 177.9791568 112.8274973 C 178.1587591 112.8274973 178.3260894 112.9070994 178.4381957 113.0457398 C 178.53913559999998 113.1697864 178.5847963 113.3232416 178.5684336 113.4795713 C 178.55196039999998 113.6367855 178.47490109999998 113.778632 178.35151779999998 113.87901910000001 C 173.04918779999997 118.18306120000001 165.72468759999998 123.7657123 160.94557559999998 125.91596440000001 C 158.8614375 126.8530582 157.00217529999998 127.3282386 155.41964099999998 127.3282386 Z M 195.9220813 42.3078734 C 195.2029536 42.3078734 194.5193704 42.5855963 193.9972027 43.0898536 C 193.4591698 43.6058301 193.1494955 44.3331944 193.1494955 45.0834443 C 193.1494955 45.784495699999994 193.4127353 46.453485099999995 193.8906796 46.96702929999999 C 194.4019573 47.53120929999999 195.1449657 47.859125799999994 195.9220813 47.859125799999994 C 197.4525425 47.859125799999994 198.6977075 46.61401609999999 198.6977075 45.0834443 C 198.6977075 43.5529831 197.4525425 42.3078733 195.9220813 42.3078733 Z" stroke-linecap="round" />
</g>
		<g transform="matrix(1.9490153526004368 0 0 1.949015352600437 -6.929248136621709 -32.88035600681053)"  >
<linearGradient id="SVGID_126919" gradientUnits="userSpaceOnUse" gradientTransform="matrix(1 0 0 1 155.0752695 51.1928382)"  x1="0" y1="0" x2="0" y2="26">
<stop offset="0%" style="stop-color:rgb(180,236,81);stop-opacity: 1"/>
<stop offset="100%" style="stop-color:rgb(66,147,33);stop-opacity: 1"/>
</linearGradient>
<path style="stroke: none; stroke-width: 1; stroke-dasharray: none; stroke-linecap: butt; stroke-dashoffset: 0; stroke-linejoin: miter; stroke-miterlimit: 4; fill: url(#SVGID_126919); fill-rule: nonzero; opacity: 1;"  paint-order="stroke"  transform=" translate(-183.9447442, -63.98954885)" d="M 187.2638286 54.9654453 L 171.6169259 70.6124043 L 164.3576523 70.6124043 C 163.75195440000002 68.68458989999999 161.953289 67.2856071 159.8256145 67.2856071 C 157.2029439 67.2856071 155.0752695 69.41324399999999 155.0752695 72.0359333 C 155.0752695 74.6586226 157.202944 76.7862595 159.8256145 76.7862595 C 161.9809503 76.7862595 163.8011406 75.3504199 164.3791771 73.3795933 L 172.1888071 73.3795933 C 172.55776939999998 73.3795933 172.90826579999998 73.2350185 173.1696226 72.9737179 L 188.816544 57.326758899999994 L 203.5226031 57.326758899999994 C 204.1129503 59.27611689999999 205.92390749999998 60.6934906 208.0638739 60.6934906 C 210.6865632 60.6934906 212.81421890000001 58.5658537 212.81421890000001 55.9431644 C 212.81421890000001 53.3204751 210.68656320000002 51.1928382 208.0638739 51.1928382 C 205.9239076 51.1928382 204.1129503 52.610287 203.5226031 54.5595699 L 188.2446439 54.5595699 C 187.8757004 54.5595699 187.5251852 54.7040697 187.2638284 54.9654453 Z M 159.8256145 74.0190704 C 159.2506556 74.0190704 158.7310382 73.773083 158.3713089 73.37959330000001 C 158.04231860000002 73.025963 157.84245860000001 72.55553180000001 157.84245860000001 72.03593320000002 C 157.84245860000001 71.47940270000002 158.0761353 70.97211470000002 158.4481753 70.61240420000001 C 158.804827 70.26800690000002 159.2906276 70.05279610000001 159.8256145 70.05279610000001 C 160.3606014 70.05279610000001 160.8464021 70.2680069 161.2030725 70.61240420000001 C 161.5750937 70.97211480000001 161.8087704 71.47940270000001 161.8087704 72.03593320000002 C 161.8087704 72.55553180000001 161.6089103 73.02596300000002 161.2799388 73.37959330000001 C 160.9201907 73.77308300000001 160.4005733 74.0190704 159.8256144 74.0190704 Z" stroke-linecap="round" />
</g>
		<g transform="matrix(1.9490153526004368 0 0 1.949015352600437 -6.9292817571364935 -32.880344507619924)"  >
<linearGradient id="SVGID_5_126920" gradientUnits="userSpaceOnUse" gradientTransform="matrix(1 0 0 1 0 0)"  x1="155.8677344" y1="63.9895547" x2="212.0217196" y2="63.9895547">
<stop offset="0%" style="stop-color:rgb(186,243,188);stop-opacity: 1"/>
<stop offset="31.45348%" style="stop-color:rgb(168,240,172);stop-opacity: 1"/>
<stop offset="82.58717%" style="stop-color:rgb(129,233,134);stop-opacity: 1"/>
<stop offset="100%" style="stop-color:rgb(116,231,122);stop-opacity: 1"/>
</linearGradient>
<path style="stroke: none; stroke-width: 1; stroke-dasharray: none; stroke-linecap: butt; stroke-dashoffset: 0; stroke-linejoin: miter; stroke-miterlimit: 4; fill: url(#SVGID_5_126920); fill-rule: nonzero; opacity: 1;"  paint-order="stroke"  transform=" translate(-183.94472695000002, -63.989554750000025)" d="M 159.8256179 75.99383 C 157.6432485 75.99383 155.8677344 74.2183712 155.8677344 72.03594650000001 C 155.8677344 69.85352180000001 157.6432485 68.07806300000001 159.8256179 68.07806300000001 C 161.5632657 68.07806300000001 163.080681 69.19193980000001 163.6015774 70.84998550000002 L 163.7759281 71.40487860000002 L 171.9451504 71.40487860000002 L 187.8241692 55.52591510000002 C 187.9362755 55.41369820000002 188.0855848 55.35200660000002 188.2446231 55.35200660000002 L 204.11059600000002 55.35200660000002 L 204.2810219 54.789263900000016 C 204.781078 53.138293900000015 206.33663600000003 51.98527940000002 208.06389130000002 51.98527940000002 C 210.24626070000002 51.98527940000002 212.02171950000002 53.76073820000002 212.02171950000002 55.94316290000002 C 212.02171950000002 58.12558760000002 210.24626070000002 59.90104640000002 208.06389130000002 59.90104640000002 C 206.33663600000003 59.90104640000002 204.78102270000002 58.74803190000002 204.2810219 57.09706190000002 L 204.11059600000002 56.53431920000002 L 188.48829400000002 56.53431920000002 L 172.6092752 72.41328270000002 C 172.4972242 72.52538900000002 172.3479149 72.58708070000003 172.1888213 72.58708070000003 L 163.7857678 72.58708070000003 L 163.6187692 73.15656750000002 C 163.128774 74.82710630000003 161.5689595 75.99383010000003 159.8256179 75.99383010000003 Z M 159.8256179 69.260265 C 159.104666 69.260265 158.4199772 69.5379879 157.8976989 70.04235580000001 C 157.3587815 70.56341800000001 157.0499917 71.2898978 157.0499917 72.03594650000001 C 157.0499917 72.7368873 157.3132315 73.4057662 157.7911758 73.91942100000001 C 158.3077051 74.48448550000002 159.0509898 74.81151750000001 159.8256179 74.81151750000001 C 160.600246 74.81151750000001 161.3434754 74.4844855 161.864814 73.9143353 C 162.3380596 73.4057662 162.6012441 72.7368874 162.6012441 72.03594650000001 C 162.6012441 71.2898978 162.292399 70.5634179 161.7539791 70.0426874 C 161.2312585 69.5379879 160.54656980000001 69.26026490000001 159.8256179 69.26026490000001 Z" stroke-linecap="round" />
</g>
		<g transform="matrix(1.9490153526004368 0 0 1.949015352600437 -2.7074890997784564 -9.731136649956937)"  >
<linearGradient id="SVGID_6_126921" gradientUnits="userSpaceOnUse" gradientTransform="matrix(1 0 0 1 0 0)"  x1="149.0458765" y1="75.8669408" x2="223.1758087" y2="75.8669408">
<stop offset="0%" style="stop-color:rgb(160,238,164);stop-opacity: 1"/>
<stop offset="9.902420000000001%" style="stop-color:rgb(138,234,143);stop-opacity: 1"/>
<stop offset="32.88547%" style="stop-color:rgb(99,227,105);stop-opacity: 1"/>
<stop offset="55.76103%" style="stop-color:rgb(69,222,76);stop-opacity: 1"/>
<stop offset="78.27452000000001%" style="stop-color:rgb(51,219,60);stop-opacity: 1"/>
<stop offset="100%" style="stop-color:rgb(47,218,55);stop-opacity: 1"/>
</linearGradient>
<path style="stroke: none; stroke-width: 1; stroke-dasharray: none; stroke-linecap: butt; stroke-dashoffset: 0; stroke-linejoin: miter; stroke-miterlimit: 4; fill: url(#SVGID_6_126921); fill-rule: nonzero; opacity: 1;"  paint-order="stroke"  transform=" translate(-186.1108426, -75.86694085)" d="M 191.334687 66.3078879 L 174.7838164 82.8587022 L 158.3374923 82.8587022 C 157.7440862 80.9124969 155.93311020000002 79.4950482 153.79314390000002 79.4950482 C 151.17047330000003 79.4950482 149.04587650000002 81.6196075 149.04587650000002 84.2422968 C 149.04587650000002 86.86498610000001 151.17047330000003 88.99262300000001 153.79314390000002 88.99262300000001 C 155.93311020000002 88.99262300000001 157.74408620000003 87.57524930000001 158.3374923 85.6258913 L 175.3556977 85.6258913 C 175.7215823 85.6258913 176.0751751 85.4813915 176.3334356 85.2200159 L 192.8843062 68.66920160000001 L 213.8288514 68.66920160000001 C 214.3515464 70.7199722 216.2117087 72.23883350000001 218.42854129999998 72.23883350000001 C 221.05121189999997 72.23883350000001 223.17580869999998 70.11119660000001 223.17580869999998 67.48850730000001 C 223.17580869999998 64.865818 221.05121189999997 62.74125870000001 218.42854129999998 62.74125870000001 C 216.35928599999997 62.74125870000001 214.60367029999998 64.0602975 213.951845 65.9020126 L 192.3124249 65.9020126 C 191.9465403 65.9020126 191.5929475 66.04959000000001 191.334687 66.307888 Z M 218.4285413 65.5084477 C 219.5200399 65.5084477 220.4086196 66.3969898 220.4086196 67.4885072 C 220.4086196 68.5831022 219.5200399 69.4716444 218.4285413 69.4716444 C 217.776716 69.4716444 217.1986795 69.154946 216.8389314 68.66920160000001 C 216.5898851 68.34019250000001 216.44538540000002 67.9312395 216.44538540000002 67.48850720000002 C 216.44538540000002 66.83664440000001 216.76206510000003 66.25864540000002 217.24786570000003 65.90201250000001 C 217.57685600000002 65.65294750000001 217.98579030000005 65.50844770000002 218.42854130000003 65.50844770000002 Z" stroke-linecap="round" />
</g>
		<g transform="matrix(1.9490153526004368 0 0 1.949015352600437 -2.7074858839030753 -9.731091140448513)"  >
<linearGradient id="SVGID_7_126922" gradientUnits="userSpaceOnUse" gradientTransform="matrix(1 0 0 1 0 0)"  x1="149.8383718" y1="75.8669642" x2="222.3833169" y2="75.8669642">
<stop offset="0%" style="stop-color:rgb(86,225,93);stop-opacity: 1"/>
<stop offset="20.819029999999998%" style="stop-color:rgb(90,226,97);stop-opacity: 1"/>
<stop offset="42.39593%" style="stop-color:rgb(103,228,110);stop-opacity: 1"/>
<stop offset="64.31582999999999%" style="stop-color:rgb(134,234,139);stop-opacity: 1"/>
<stop offset="86.33330000000001%" style="stop-color:rgb(173,240,176);stop-opacity: 1"/>
<stop offset="100%" style="stop-color:rgb(203,246,205);stop-opacity: 1"/>
</linearGradient>
<path style="stroke: none; stroke-width: 1; stroke-dasharray: none; stroke-linecap: butt; stroke-dashoffset: 0; stroke-linejoin: miter; stroke-miterlimit: 4; fill: url(#SVGID_7_126922); fill-rule: nonzero; opacity: 1;"  paint-order="stroke"  transform=" translate(-186.11084425, -75.86696419999998)" d="M 153.7931596 88.200151 C 151.6124486 88.200151 149.8383718 86.42469220000001 149.8383718 84.24226750000001 C 149.8383718 82.06161180000001 151.61244870000002 80.2874797 153.7931596 80.2874797 C 155.5194199 80.2874797 157.0763599 81.4398309 157.5794563 83.08980580000001 L 157.75065610000001 83.6512218 L 175.11204320000002 83.6512218 L 191.8950435 66.86833200000001 C 192.00543620000002 66.75777350000001 192.1575094 66.694534 192.3124018 66.694534 L 214.5120496 66.694534 L 214.69894870000002 66.1663961 C 215.25621880000003 64.591822 216.755005 63.5337773 218.4285289 63.5337773 C 220.6092399 63.5337773 222.3833167 65.3077989 222.3833167 67.4884546 C 222.3833167 69.6708792 220.60923979999998 71.44633809999999 218.4285289 71.44633809999999 C 216.6185758 71.44633809999999 215.0428962 70.22389279999999 214.5967927 68.47353079999999 L 214.4446642 67.87673609999999 L 192.55607270000002 67.87673609999999 L 175.77307240000002 84.65962589999998 C 175.66273500000003 84.77128999999998 175.5118227 84.83342389999999 175.35571410000003 84.83342389999999 L 157.75037970000002 84.83342389999999 L 157.57934570000003 85.39517159999998 C 157.06862070000003 87.07289669999999 155.54705950000005 88.20015109999999 153.79315960000002 88.20015109999999 Z M 216.7737448 65.2670028 C 216.0718089 65.7847482 215.6529028 66.6147108 215.6529028 67.4884546 C 215.6529028 68.0948679 215.8445007 68.668556 216.207022 69.1474953 C 216.723109 69.8442349 217.55539339999999 70.2641361 218.4285291 70.2641361 C 219.95733189999999 70.2641361 221.201115 69.0189158 221.201115 67.4884546 C 221.201115 65.9597623 219.95733199999998 64.7159793 218.4285291 64.7159793 C 217.82388469999998 64.7159793 217.2517445 64.9064716 216.7737449 65.2670028 Z" stroke-linecap="round" />
</g>
		<g transform="matrix(1.9490153526004368 0 0 1.949015352600437 62.53909629563776 -0.008240753625813113)"  >
<linearGradient id="SVGID_8_126923" gradientUnits="userSpaceOnUse" gradientTransform="matrix(1 0 0 1 0 0)"  x1="193.9758047" y1="80.8555603" x2="245.1992632" y2="80.8555603">
<stop offset="0%" style="stop-color:rgb(32,182,40);stop-opacity: 1"/>
<stop offset="10.925740000000001%" style="stop-color:rgb(34,191,42);stop-opacity: 1"/>
<stop offset="49.90608%" style="stop-color:rgb(60,221,68);stop-opacity: 1"/>
<stop offset="80.95331999999999%" style="stop-color:rgb(82,224,89);stop-opacity: 1"/>
<stop offset="100%" style="stop-color:rgb(95,227,101);stop-opacity: 1"/>
</linearGradient>
<path style="stroke: none; stroke-width: 1; stroke-dasharray: none; stroke-linecap: butt; stroke-dashoffset: 0; stroke-linejoin: miter; stroke-miterlimit: 4; fill: url(#SVGID_8_126923); fill-rule: nonzero; opacity: 1;"  paint-order="stroke"  transform=" translate(-219.58753394999997, -80.85556030000001)" d="M 240.4489369 76.1067729 C 238.3058929 76.1067729 236.4979946 77.5272243 235.90458850000002 79.4735046 L 203.2704794 79.4735046 C 202.680151 77.5272243 200.869175 76.1067729 198.7261498 76.1067729 C 196.1034605 76.1067729 193.9758048 78.2344098 193.9758048 80.8570991 C 193.9758048 83.4797884 196.10346049999998 85.6043477 198.7261498 85.6043477 C 200.869175 85.6043477 202.680151 84.186974 203.2704794 82.24069370000001 L 235.9045885 82.24069370000001 C 236.4979946 84.186974 238.30589289999998 85.6043477 240.44893689999998 85.6043477 C 243.07468509999998 85.6043477 245.19926309999997 83.4797884 245.19926309999997 80.8570991 C 245.19926309999997 78.2344098 243.07468509999995 76.1067729 240.44893689999998 76.1067729 Z M 198.7261498 82.8371586 C 197.6346512 82.8371586 196.7429939 81.9486165 196.7429939 80.8570991 C 196.7429939 79.7625041 197.63465119999998 78.8739619 198.7261498 78.8739619 C 199.2826615 78.8739619 199.7869094 79.104561 200.143561 79.4735045 C 200.4940761 79.8302125 200.70930570000002 80.3190345 200.70930570000002 80.857099 C 200.70930570000002 81.39516350000001 200.49407610000003 81.8871383 200.143561 82.2406935 C 199.7838317 82.60971210000001 199.2795838 82.8371585 198.7261498 82.8371585 Z" stroke-linecap="round" />
</g>
		<g transform="matrix(1.9490153526004368 0 0 1.949015352600437 62.53911939146968 -0.008193490003492343)"  >
<linearGradient id="SVGID_9_126924" gradientUnits="userSpaceOnUse" gradientTransform="matrix(1 0 0 1 0 0)"  x1="194.7682929" y1="80.8555845" x2="244.4067987" y2="80.8555845">
<stop offset="0%" style="stop-color:rgb(186,243,188);stop-opacity: 1"/>
<stop offset="31.45348%" style="stop-color:rgb(168,240,172);stop-opacity: 1"/>
<stop offset="82.58717%" style="stop-color:rgb(129,233,134);stop-opacity: 1"/>
<stop offset="100%" style="stop-color:rgb(116,231,122);stop-opacity: 1"/>
</linearGradient>
<path style="stroke: none; stroke-width: 1; stroke-dasharray: none; stroke-linecap: butt; stroke-dashoffset: 0; stroke-linejoin: miter; stroke-miterlimit: 4; fill: url(#SVGID_9_126924); fill-rule: nonzero; opacity: 1;"  paint-order="stroke"  transform=" translate(-219.5875458, -80.85558455)" d="M 240.4489152 84.8118649 C 238.69529169999998 84.8118649 237.1736751 83.68571610000001 236.66261849999998 82.0095388 L 236.49147399999998 81.4482333 L 202.6826779 81.4482333 L 202.51208609999998 82.0106444 C 202.01186419999996 83.65995600000001 200.45503479999996 84.8118649 198.72617639999999 84.8118649 C 196.543807 84.8118649 194.76829289999998 83.0377328 194.76829289999998 80.8570771 C 194.76829289999998 78.674763 196.543807 76.8993042 198.72617639999999 76.8993042 C 200.45448199999998 76.8993042 202.01131149999998 78.0524293 202.51208609999998 79.7036204 L 202.6826779 80.26603150000001 L 236.49147399999998 80.26603150000001 L 236.66261849999998 79.70472600000001 C 237.17422789999998 78.02666920000001 238.69578919999998 76.8993042 240.4489152 76.8993042 C 242.6312846 76.8993042 244.4067987 78.674763 244.4067987 80.8570771 C 244.4067987 83.0377328 242.6312846 84.8118649 240.4489152 84.8118649 Z M 198.7261764 78.081506 C 197.1956599 78.081506 195.95049490000002 79.3266157 195.95049490000002 80.857077 C 195.95049490000002 82.3858798 197.1956599 83.6296629 198.7261764 83.6296629 C 199.48084870000002 83.6296629 200.1857143 83.3328133 200.71103300000001 82.7938407 C 201.21927040000003 82.28129150000001 201.50180260000002 81.59173820000001 201.50180260000002 80.857077 C 201.50180260000002 80.1270593 201.22015480000002 79.4383904 200.70871130000003 78.91799160000001 C 200.19654910000003 78.38808470000001 199.47228040000005 78.081506 198.72617640000004 78.081506 Z" stroke-linecap="round" />
</g>
		<g transform="matrix(1.9490153526004368 0 0 1.949015352600437 -11.513544103906668 85.10994707635825)"  >
<path style="stroke: none; stroke-width: 1; stroke-dasharray: none; stroke-linecap: butt; stroke-dashoffset: 0; stroke-linejoin: miter; stroke-miterlimit: 4; fill: rgb(32,182,40); fill-rule: nonzero; opacity: 1;"  paint-order="stroke"  transform=" translate(-181.59263550000003, -124.5279653)" d="M 187.7988343 119.779178 C 185.658868 119.779178 183.847892 121.1966268 183.25448590000002 123.142832 L 172.01970500000002 123.142832 C 171.254119 123.142832 170.63611050000003 123.76391819999999 170.63611050000003 124.5264265 C 170.63611050000003 125.2920125 171.25411910000003 125.910021 172.01970500000002 125.910021 L 183.25448590000002 125.910021 C 183.84789200000003 127.859379 185.658868 129.2767527 187.7988343 129.2767527 C 190.4215049 129.2767527 192.5491605 127.1491158 192.5491605 124.5264265 C 192.5491605 121.9037372 190.4215048 119.7791779 187.7988343 119.7791779 Z M 187.7988343 126.5095637 C 187.24232260000002 126.5095637 186.7380747 126.2789646 186.3814043 125.9100211 C 186.03090790000002 125.5533882 185.81567840000002 125.0644911 185.81567840000002 124.5264266 C 185.81567840000002 123.9852844 186.030908 123.49946499999999 186.3814043 123.14283209999999 C 186.7411524 122.77388859999999 187.2453815 122.5463671 187.7988343 122.5463671 C 188.8903329 122.5463671 189.7819715 123.43490919999999 189.7819715 124.5264266 C 189.7819715 125.62102159999999 188.8903329 126.5095638 187.7988343 126.5095638 Z" stroke-linecap="round" />
</g>
		<g transform="matrix(1.9490153526004368 0 0 1.949015352600437 -11.51351506357804 85.10993284854624)"  >
<linearGradient id="SVGID_11_126925" gradientUnits="userSpaceOnUse" gradientTransform="matrix(1 0 0 1 0 0)"  x1="171.4286212" y1="124.5279581" x2="191.7566796" y2="124.5279581">
<stop offset="0%" style="stop-color:rgb(86,225,93);stop-opacity: 1"/>
<stop offset="20.819029999999998%" style="stop-color:rgb(90,226,97);stop-opacity: 1"/>
<stop offset="42.39593%" style="stop-color:rgb(103,228,110);stop-opacity: 1"/>
<stop offset="64.31582999999999%" style="stop-color:rgb(134,234,139);stop-opacity: 1"/>
<stop offset="86.33330000000001%" style="stop-color:rgb(173,240,176);stop-opacity: 1"/>
<stop offset="100%" style="stop-color:rgb(203,246,205);stop-opacity: 1"/>
</linearGradient>
<path style="stroke: none; stroke-width: 1; stroke-dasharray: none; stroke-linecap: butt; stroke-dashoffset: 0; stroke-linejoin: miter; stroke-miterlimit: 4; fill: url(#SVGID_11_126925); fill-rule: nonzero; opacity: 1;"  paint-order="stroke"  transform=" translate(-181.5926504, -124.52795800000001)" d="M 187.7988514 128.4842384 C 186.04489619999998 128.4842384 184.52333489999998 127.35698400000001 184.01261 125.67925890000001 L 183.8416313 125.11751120000001 L 172.0197222 125.11751120000001 C 171.6937958 125.11751120000001 171.42862119999998 124.85239190000001 171.42862119999998 124.52646550000001 C 171.42862119999998 124.20053910000001 171.69379569999998 123.93530920000002 172.0197222 123.93530920000002 L 183.8413549 123.93530920000002 L 184.0125547 123.37389320000003 C 184.5155958 121.72402880000003 186.0725911 120.57167760000003 187.79885140000002 120.57167760000003 C 189.98122080000002 120.57167760000003 191.7566796 122.34580970000003 191.7566796 124.52646540000003 C 191.7566796 126.70877950000003 189.98122080000002 128.48423830000004 187.79885140000002 128.48423830000004 Z M 187.7988514 121.7538796 C 187.04440019999998 121.7538796 186.33953459999998 122.0506186 185.8139948 122.5895912 C 185.3047624 123.1077789 185.0231699 123.7964477 185.0231699 124.5264654 C 185.0231699 125.25659370000001 185.3048177 125.94526250000001 185.816206 126.4655508 C 186.32853409999998 126.9954577 187.0528027 127.3020364 187.79885149999998 127.3020364 C 189.329368 127.3020364 190.5744777 126.0569267 190.5744777 124.5264654 C 190.5744777 122.99766260000001 189.329368 121.75387950000001 187.79885149999998 121.75387950000001 Z" stroke-linecap="round" />
</g>
		<g transform="matrix(1.9490153526004368 0 0 1.949015352600437 23.138377081898 23.968026311670258)"  >
<linearGradient id="SVGID_12_126926" gradientUnits="userSpaceOnUse" gradientTransform="matrix(1 0 0 1 0 0)"  x1="180.3151169" y1="93.1572937" x2="218.4285413" y2="93.1572937">
<stop offset="0%" style="stop-color:rgb(160,238,164);stop-opacity: 1"/>
<stop offset="9.902420000000001%" style="stop-color:rgb(138,234,143);stop-opacity: 1"/>
<stop offset="32.88547%" style="stop-color:rgb(99,227,105);stop-opacity: 1"/>
<stop offset="55.76103%" style="stop-color:rgb(69,222,76);stop-opacity: 1"/>
<stop offset="78.27452000000001%" style="stop-color:rgb(51,219,60);stop-opacity: 1"/>
<stop offset="100%" style="stop-color:rgb(47,218,55);stop-opacity: 1"/>
</linearGradient>
<path style="stroke: none; stroke-width: 1; stroke-dasharray: none; stroke-linecap: butt; stroke-dashoffset: 0; stroke-linejoin: miter; stroke-miterlimit: 4; fill: url(#SVGID_12_126926); fill-rule: nonzero; opacity: 1;"  paint-order="stroke"  transform=" translate(-199.37182905000003, -93.1572936)" d="M 213.6781963 93.2172704 C 211.53823 93.2172704 209.727254 94.6346441 209.1338479 96.583927 L 191.9557545 96.583927 L 187.68199600000003 92.3101872 C 188.96412170000002 91.4615795 189.81272930000003 90.0041963 189.81272930000003 88.3469905 C 189.81272930000003 85.7243012 187.68813250000002 83.5966643 185.06546190000003 83.5966643 C 182.43969490000003 83.5966643 180.31511690000002 85.7243012 180.31511690000002 88.3469905 C 180.31511690000002 90.7882482 182.1537355 92.7990843 184.52737860000002 93.0665402 L 190.40613530000002 98.94531570000001 C 190.66439580000002 99.20669140000001 191.01491090000002 99.35111610000001 191.3838732 99.35111610000001 L 209.1338478 99.35111610000001 C 209.72725390000002 101.30047410000002 211.5382299 102.71792290000002 213.6781962 102.71792290000002 C 216.3008668 102.71792290000002 218.4285412 100.59028600000002 218.4285412 97.96752160000003 C 218.4285412 95.34490730000003 216.3008667 93.21727040000003 213.6781962 93.21727040000003 Z M 213.6781963 99.9507338 C 213.1216846 99.9507338 212.61743669999998 99.72013469999999 212.2607851 99.3511161 C 211.91027 98.9944832 211.69504039999998 98.5055861 211.69504039999998 97.9675216 C 211.69504039999998 97.4294571 211.91026999999997 96.940635 212.2607851 96.5839271 C 212.61743679999998 96.21505859999999 213.12168459999998 95.9844595 213.6781963 95.9844595 C 214.7696949 95.9844595 215.6613522 96.8760793 215.6613522 97.9675216 C 215.6613522 99.0621166 214.76969490000002 99.9507338 213.6781963 99.9507338 Z" stroke-linecap="round" />
</g>
		<g transform="matrix(1.9490153526004368 0 0 1.949015352600437 23.138340537860074 23.968072893137162)"  >
<linearGradient id="SVGID_13_126927" gradientUnits="userSpaceOnUse" gradientTransform="matrix(1 0 0 1 0 0)"  x1="181.107575" y1="93.1573174" x2="217.6360457" y2="93.1573174">
<stop offset="0%" style="stop-color:rgb(86,225,93);stop-opacity: 1"/>
<stop offset="20.819029999999998%" style="stop-color:rgb(90,226,97);stop-opacity: 1"/>
<stop offset="42.39593%" style="stop-color:rgb(103,228,110);stop-opacity: 1"/>
<stop offset="64.31582999999999%" style="stop-color:rgb(134,234,139);stop-opacity: 1"/>
<stop offset="86.33330000000001%" style="stop-color:rgb(173,240,176);stop-opacity: 1"/>
<stop offset="100%" style="stop-color:rgb(203,246,205);stop-opacity: 1"/>
</linearGradient>
<path style="stroke: none; stroke-width: 1; stroke-dasharray: none; stroke-linecap: butt; stroke-dashoffset: 0; stroke-linejoin: miter; stroke-miterlimit: 4; fill: url(#SVGID_13_126927); fill-rule: nonzero; opacity: 1;"  paint-order="stroke"  transform=" translate(-199.3718103, -93.1573175)" d="M 213.6782175 101.9254351 C 211.9243176 101.9254351 210.40270099999998 100.7981807 209.8919761 99.120345 L 209.7209421 98.5585973 L 191.3838763 98.5585973 C 191.2253907 98.5585973 191.0783479 98.4981218 190.96989 98.38833720000001 L 184.8916605 92.3100524 L 184.6160935 92.2789855 C 182.6159245 92.0536673 181.107575 90.3632279 181.107575 88.34697270000001 C 181.107575 86.16465860000001 182.8830891 84.38919980000001 185.0654585 84.38919980000001 C 187.2461695 84.38919980000001 189.0202463 86.16465860000001 189.0202463 88.34697270000001 C 189.0202463 89.67898140000001 188.3564531 90.91347760000001 187.2446216 91.6493549 L 186.43572039999998 92.18467910000001 L 191.62749189999997 97.3763954 L 209.72094199999998 97.3763954 L 209.8919207 96.81475830000001 C 210.40270089999999 95.1370332 211.9242622 94.0097788 213.6782174 94.0097788 C 215.8605868 94.0097788 217.6360456 95.7852376 217.6360456 97.9675517 C 217.6360456 100.1499763 215.8605868 101.9254352 213.6782174 101.9254352 Z M 213.6782175 95.1919806 C 212.93222409999998 95.1919806 212.20795539999997 95.4985593 211.69114969999998 96.0329991 C 211.18418369999998 96.54897559999999 210.90253599999997 97.2376444 210.90253599999997 97.9675516 C 210.90253599999997 98.69779039999999 211.18423899999996 99.3863487 211.69568259999997 99.90663699999999 C 212.20773429999997 100.43654389999999 212.93205819999997 100.74323309999998 213.67821749999996 100.74323309999998 C 215.20873399999996 100.74323309999998 216.45384369999996 99.49812339999998 216.45384369999996 97.96755159999998 C 216.45384369999996 96.43709039999997 215.20873399999996 95.19198059999998 213.67821749999996 95.19198059999998 Z" stroke-linecap="round" />
</g>
		<g transform="matrix(1.9490153526004368 0 0 1.949015352600437 -11.97496364610737 46.37410248630627)"  >
<linearGradient id="SVGID_14_126928" gradientUnits="userSpaceOnUse" gradientTransform="matrix(1 0 0 1 0 0)"  x1="156.6864043" y1="104.6533939" x2="206.0253766" y2="104.6533939">
<stop offset="0%" style="stop-color:rgb(32,182,40);stop-opacity: 1"/>
<stop offset="10.925740000000001%" style="stop-color:rgb(34,191,42);stop-opacity: 1"/>
<stop offset="49.90608%" style="stop-color:rgb(60,221,68);stop-opacity: 1"/>
<stop offset="80.95331999999999%" style="stop-color:rgb(82,224,89);stop-opacity: 1"/>
<stop offset="100%" style="stop-color:rgb(95,227,101);stop-opacity: 1"/>
</linearGradient>
<path style="stroke: none; stroke-width: 1; stroke-dasharray: none; stroke-linecap: butt; stroke-dashoffset: 0; stroke-linejoin: miter; stroke-miterlimit: 4; fill: url(#SVGID_14_126928); fill-rule: nonzero; opacity: 1;"  paint-order="stroke"  transform=" translate(-181.35589055, -104.653394)" d="M 201.2750316 108.6704121 C 199.1320064 108.6704121 197.3210304 110.0878609 196.730702 112.0372189 L 191.8911988 112.0372189 L 174.7653693 94.9083305 C 174.5040124 94.65003250000001 174.153516 94.5024551 173.7845538 94.5024551 L 165.9810791 94.5024551 C 165.38767299999998 92.55617480000001 163.576697 91.138726 161.43367179999998 91.138726 C 158.8109825 91.138726 156.6864044 93.2633603 156.6864044 95.8860497 C 156.6864044 98.51174160000001 158.8109824 100.6363759 161.43367179999998 100.6363759 C 163.576697 100.6363759 165.38767299999998 99.2189271 165.9810791 97.2696442 L 173.2126726 97.2696442 L 190.3384834 114.39853260000001 C 190.5998403 114.6568306 190.9503554 114.80440800000001 191.3192989 114.80440800000001 L 196.7307021 114.80440800000001 C 197.3241082 116.75061330000001 199.1350842 118.168062 201.2750317 118.168062 C 203.897721 118.168062 206.0253767 116.04342770000001 206.0253767 113.4208134 C 206.0253767 110.7950464 203.89772100000002 108.6704121 201.2750317 108.6704121 Z M 161.4336716 97.8691867 C 160.3421542 97.8691867 159.4535933 96.9805695 159.4535933 95.8860495 C 159.4535933 94.7945321 160.34215419999998 93.9059149 161.4336716 93.9059149 C 161.9871057 93.9059149 162.4913535 94.1335114 162.8510828 94.5024549 C 163.2015979 94.8560101 163.4168087 95.3479849 163.4168087 95.8860494 C 163.4168087 96.42411390000001 163.2015979 96.912936 162.8510828 97.2696439 C 162.4944124 97.6385874 161.9901833 97.86918650000001 161.4336716 97.86918650000001 Z" stroke-linecap="round" />
</g>
		<g transform="matrix(1.9490153526004368 0 0 1.949015352600437 -11.97496588747515 46.37402705941207)"  >
<linearGradient id="SVGID_15_126929" gradientUnits="userSpaceOnUse" gradientTransform="matrix(1 0 0 1 0 0)"  x1="157.4789034" y1="104.6533553" x2="205.2328754" y2="104.6533553">
<stop offset="0%" style="stop-color:rgb(186,243,188);stop-opacity: 1"/>
<stop offset="31.45348%" style="stop-color:rgb(168,240,172);stop-opacity: 1"/>
<stop offset="82.58717%" style="stop-color:rgb(129,233,134);stop-opacity: 1"/>
<stop offset="100%" style="stop-color:rgb(116,231,122);stop-opacity: 1"/>
</linearGradient>
<path style="stroke: none; stroke-width: 1; stroke-dasharray: none; stroke-linecap: butt; stroke-dashoffset: 0; stroke-linejoin: miter; stroke-miterlimit: 4; fill: url(#SVGID_15_126929); fill-rule: nonzero; opacity: 1;"  paint-order="stroke"  transform=" translate(-181.35588939999994, -104.65335529999999)" d="M 201.2750472 117.3755422 C 199.54878689999998 117.3755422 197.9917916 116.223191 197.48875049999998 114.5732161 L 197.31755069999997 114.0119106 L 191.31931019999996 114.0119106 C 191.16159849999997 114.0119106 191.01107309999995 113.94900279999999 190.89553949999996 113.83479589999999 L 173.54095179999996 96.47711249999999 L 165.39395169999995 96.47711249999999 L 165.22297299999994 97.03886019999999 C 164.71219279999994 98.71658529999999 163.18941539999994 99.84383969999999 161.43369119999994 99.84383969999999 C 159.25303549999995 99.84383969999999 157.47890339999995 98.0683809 157.47890339999995 95.8860668 C 157.47890339999995 93.70530049999999 159.25303549999995 91.93116839999999 161.43369119999994 91.93116839999999 C 163.18913889999993 91.93116839999999 164.71197159999994 93.05731719999999 165.22302829999995 94.73349449999999 L 165.39422809999996 95.29491049999999 L 173.78456739999996 95.29491049999999 C 173.94227909999995 95.29491049999999 174.09280449999997 95.35781829999999 174.20839339999995 95.47202519999999 L 191.56287059999994 112.82970859999999 L 197.31876689999993 112.82970859999999 L 197.48913749999994 112.26696589999999 C 197.99704319999995 110.589683 199.51849389999995 109.46287079999999 201.27504719999993 109.46287079999999 C 203.45741659999993 109.46287079999999 205.23287539999993 111.23844019999999 205.23287539999993 113.42086479999999 C 205.23287539999993 115.60152049999999 203.45741659999993 117.37554209999999 201.27504719999993 117.37554209999999 Z M 161.4336912 93.113481 C 159.9048884 93.113481 158.6611053 94.35726399999999 158.6611053 95.88606689999999 C 158.6611053 97.4165281 159.9048883 98.66163789999999 161.4336912 98.66163789999999 C 162.1798505 98.66163789999999 162.9041744 98.35505919999999 163.4209248 97.82028779999999 C 163.9277249 97.30464299999998 164.2093174 96.61608469999999 164.2093174 95.88606699999998 C 164.2093174 95.15151639999998 163.9268405 94.46196309999998 163.4139043 93.94454929999998 C 162.893008 93.41022009999998 162.18808700000002 93.11348109999997 161.4336911 93.11348109999997 Z" stroke-linecap="round" />
</g>
		<g transform="matrix(1.9490153526004368 0 0 1.949015352600437 -1.2785433517214528 -2.842171e-14)"  >
<linearGradient id="SVGID_16_126930" gradientUnits="userSpaceOnUse" gradientTransform="matrix(1 0 0 1 0 0)"  x1="156.2469373" y1="49.6005448" x2="218.7599356" y2="112.1135431">
<stop offset="0%" style="stop-color:rgb(112,230,118);stop-opacity: 1"/>
<stop offset="20.482139999999998%" style="stop-color:rgb(99,227,105);stop-opacity: 1"/>
<stop offset="53.872569999999996%" style="stop-color:rgb(73,223,80);stop-opacity: 1"/>
<stop offset="95.80896%" style="stop-color:rgb(37,212,46);stop-opacity: 1"/>
<stop offset="100%" style="stop-color:rgb(37,208,45);stop-opacity: 1"/>
</linearGradient>
<path style="stroke: none; stroke-width: 1; stroke-dasharray: none; stroke-linecap: butt; stroke-dashoffset: 0; stroke-linejoin: miter; stroke-miterlimit: 4; fill: url(#SVGID_16_126930); fill-rule: nonzero; opacity: 1;"  paint-order="stroke"  transform=" translate(-186.84400549999998, -80.8597884625)" d="M 159.5553548 46.2921541 L 179.2916743 26.555861299999997 C 183.8196758 22.027752699999997 191.18719700000003 22.027859799999995 195.7151985 26.555754199999996 L 241.8046458 72.6453622 C 242.64847840000002 73.48914789999999 243.3457804 74.44025099999999 243.8852323 75.46745089999999 C 242.89188370000002 74.83187379999998 241.71319300000002 74.4616181 240.4489336 74.4616181 C 239.76990610000001 74.4616181 239.1124264 74.56639179999999 238.493718 74.7628592 L 193.0008823 29.270070399999994 C 191.4852651 27.754453199999993 189.4943239 26.996698099999996 187.5034363 26.996698099999996 C 185.5124951 26.996698099999996 183.52160750000002 27.754453199999997 182.0059903 29.270070399999994 L 167.7867501 43.489303899999996 C 164.8141881 44.1811637 162.06934090000001 45.116228099999994 159.55535460000002 46.2921542 Z M 240.4489337 87.2494174 C 239.7706492 87.2494174 239.1138791 87.1450186 238.4958067 86.9491938 L 193.0008825 132.4440711 C 191.5324442 133.9124558 189.5800602 134.721192 187.5034365 134.721192 C 185.4267592 134.721192 183.4744288 133.9124558 182.0059905 132.4440711 L 177.11704459999999 127.5551319 L 172.0196892 127.5551319 C 171.90044989999998 127.5551319 171.78303799999998 127.54744720000001 171.66735989999998 127.533979 L 179.29167439999998 135.1582801 C 181.48509409999997 137.3517534 184.40140689999998 138.55977030000003 187.50343649999996 138.55977030000003 C 190.60541259999997 138.55977030000003 193.52172529999996 137.35175340000004 195.71519859999995 135.1582801 L 241.80464589999997 89.06877920000002 C 242.64954949999998 88.22392250000003 243.34753429999998 87.27145380000002 243.88727409999996 86.24278120000002 C 242.89350379999996 86.87884030000002 241.71405669999996 87.24941730000002 240.44893369999997 87.24941730000002 Z M 140.2891379 94.3876307 C 140.94640339999998 93.59509390000001 141.4827628 92.9482174 141.8917832 92.3299107 L 135.9164361 86.3545703 C 134.4479978 84.88607850000001 133.6393152 82.93380160000001 133.6393152 80.85707070000001 C 133.6393152 78.78033980000001 134.4479978 76.82806300000001 135.9164361 75.35957110000001 L 141.562615 69.71339890000002 C 142.02674 67.14879970000001 142.7980235 64.48918650000002 143.983629 61.863873200000015 L 133.20212 72.64536210000001 C 131.00870030000002 74.83872830000001 129.8007369 77.75504100000002 129.8007369 80.85707070000001 C 129.8007369 83.9591004 131.0087002 86.8754131 133.20212 89.0687793 L 139.4911657 95.357825 C 139.7678467 95.0169156 140.03440650000002 94.695124 140.289138 94.38763080000001 Z" stroke-linecap="round" />
</g>
</g>
</g>
<g transform="matrix(1.9211538461538462 0 0 1.9211538461538462 594.5551057692309 702.8987183993135)" id="text-logo"  >
<g style=""  paint-order="stroke"   >
		<g transform="matrix(1 0 0 1 -5.684342e-14 0)" id="text-logo-path-0"  >
<path style="stroke: none; stroke-width: 0; stroke-dasharray: none; stroke-linecap: butt; stroke-dashoffset: 0; stroke-linejoin: miter; stroke-miterlimit: 4; fill: rgb(37,208,45); fill-rule: nonzero; opacity: 1;"  paint-order="stroke"  transform=" translate(-214.03500000000003, 19.84)" d="M 37.96 0 L 4.28 0 L 19.84 -19.84 L 4.28 -39.67 L 37.96 -39.67 L 22.4 -19.84 L 37.96 0 Z M 8.55 -37.56 L 21.09 -21.55 L 33.69 -37.56 L 8.55 -37.56 Z M 8.55 -2.11 L 33.69 -2.11 L 21.09 -18.13 L 8.55 -2.11 Z M 50.16 0 L 50.16 -39.67 L 79.06 -39.67 L 79.06 -29.64 L 60.53 -29.64 L 60.53 -24.62 L 75.92 -24.62 L 75.92 -15.11 L 60.53 -15.11 L 60.53 -10.03 L 79.06 -10.03 L 79.06 0 L 50.16 0 Z M 114.06 -14.08 L 124.15 0 L 93.65 0 L 93.65 -39.67 L 109.1 -39.67 Q 114.06 -39.67 117.19 -37.91 L 117.19 -37.91 Q 120.27 -36.2 121.98 -33.23 Q 123.69 -30.27 123.69 -26.68 L 123.69 -26.68 Q 123.69 -22.23 120.95 -18.72 Q 118.22 -15.22 114.06 -14.08 L 114.06 -14.08 Z M 109.16 -37.56 L 97.24 -37.56 L 112.75 -15.9 Q 116.56 -16.7 119.07 -19.72 Q 121.58 -22.74 121.58 -26.68 L 121.58 -26.68 Q 121.58 -29.81 120.04 -32.38 Q 118.5 -34.94 115.71 -36.31 L 115.71 -36.31 Q 113.2 -37.56 109.16 -37.56 L 109.16 -37.56 Z M 110.41 -15.73 L 95.76 -36.2 L 95.76 -15.73 L 110.41 -15.73 Z M 95.76 -13.62 L 95.76 -2.11 L 120.16 -2.11 L 111.83 -13.68 L 110.07 -13.62 L 95.76 -13.62 Z M 134.52 -24.23 Q 134.52 -28.67 136.74 -32.49 Q 138.97 -36.31 142.76 -38.53 Q 146.55 -40.76 151.05 -40.76 L 151.05 -40.76 Q 155.55 -40.76 159.34 -38.53 Q 163.13 -36.31 165.36 -32.49 Q 167.58 -28.67 167.58 -24.23 L 167.58 -24.23 L 167.58 -15.45 Q 167.58 -11 165.36 -7.18 Q 163.13 -3.36 159.34 -1.14 Q 155.55 1.08 151.05 1.08 L 151.05 1.08 Q 146.55 1.08 142.76 -1.14 Q 138.97 -3.36 136.74 -7.18 Q 134.52 -11 134.52 -15.45 L 134.52 -15.45 L 134.52 -24.23 Z M 144.89 -15.45 Q 144.89 -12.71 146.6 -10.77 Q 148.31 -8.84 151.05 -8.84 L 151.05 -8.84 Q 153.73 -8.84 155.44 -10.77 Q 157.15 -12.71 157.15 -15.45 L 157.15 -15.45 L 157.15 -24.28 Q 157.15 -27.07 155.44 -28.96 Q 153.73 -30.84 151.05 -30.84 L 151.05 -30.84 Q 148.31 -30.84 146.6 -28.96 Q 144.89 -27.07 144.89 -24.28 L 144.89 -24.28 L 144.89 -15.45 Z M 194.08 -38.42 Q 190.27 -38.42 186.99 -36.51 Q 183.71 -34.6 181.77 -31.32 Q 179.83 -28.04 179.83 -24.17 L 179.83 -24.17 L 179.83 -16.64 Q 179.83 -12.6 180.97 -9.97 L 180.97 -9.97 Q 182.57 -6.27 185.82 -3.93 Q 189.07 -1.6 193.12 -1.31 L 193.12 -1.31 L 193.12 -19.84 L 210.5 -19.84 L 210.5 -16.07 Q 210.5 -12.43 209.42 -9.58 L 209.42 -9.58 Q 207.65 -4.84 203.49 -2 Q 199.33 0.85 194.08 0.85 L 194.08 0.85 Q 189.13 0.85 185.05 -1.85 Q 180.97 -4.56 179.09 -9.06 L 179.09 -9.06 Q 177.73 -12.26 177.73 -16.64 L 177.73 -16.64 L 177.73 -24.17 Q 177.73 -28.61 179.92 -32.38 Q 182.11 -36.14 185.88 -38.33 Q 189.64 -40.53 194.08 -40.53 L 194.08 -40.53 Q 197.79 -40.53 200.87 -39.3 Q 203.95 -38.08 206.11 -35.74 L 206.11 -35.74 Q 207.88 -33.8 208.99 -31.41 Q 210.1 -29.01 210.1 -26.56 L 210.1 -26.56 L 208.05 -26.56 Q 207.99 -28.67 207 -30.72 Q 206 -32.77 204.46 -34.43 L 204.46 -34.43 Q 200.64 -38.42 194.08 -38.42 L 194.08 -38.42 Z M 208.39 -16.07 L 208.39 -17.78 L 195.17 -17.78 L 195.17 -1.31 Q 199.27 -1.6 202.55 -3.9 Q 205.83 -6.21 207.37 -10.03 L 207.37 -10.03 Q 208.39 -12.71 208.39 -16.07 L 208.39 -16.07 Z M 237.69 -40.53 L 256.39 0 L 218.99 0 L 237.69 -40.53 Z M 237.69 -35.51 L 222.3 -2.11 L 253.08 -2.11 L 237.69 -35.51 Z M 278.22 0 L 267.84 0 L 267.84 -39.67 L 284.43 -39.67 Q 288.59 -39.67 291.61 -38.13 L 291.61 -38.13 Q 295.09 -36.37 297.14 -33.09 Q 299.19 -29.81 299.19 -25.88 L 299.19 -25.88 Q 299.19 -21.95 297.17 -18.64 Q 295.15 -15.33 291.67 -13.57 L 291.67 -13.57 Q 288.7 -12.03 284.43 -12.03 L 284.43 -12.03 L 278.22 -12.03 L 278.22 0 Z M 367.65 -40.53 L 386.35 0 L 348.95 0 L 367.65 -40.53 Z M 367.65 -35.51 L 352.26 -2.11 L 383.04 -2.11 L 367.65 -35.51 Z M 409.94 -29.64 L 398.14 -29.64 L 398.14 -39.67 L 423.79 -39.67 L 423.79 -29.64 L 412 -29.64 L 412 -10.03 L 423.79 -10.03 L 423.79 0 L 398.14 0 L 398.14 -10.03 L 409.94 -10.03 L 409.94 -29.64 Z" stroke-linecap="round" />
</g>
</g>
</g>
<g transform="matrix(1.9211538461538462 0 0 1.9211538461538462 638.6014000000004 798.8363385916211)" id="tagline-1a3694d9-7084-4b94-8a4b-0ac8e5cb08ae-logo"  >
<g style=""  paint-order="stroke"   >
		<g transform="matrix(1 0 0 1 0 0)" id="tagline-1a3694d9-7084-4b94-8a4b-0ac8e5cb08ae-logo-path-0"  >
<path style="stroke: none; stroke-width: 0; stroke-dasharray: none; stroke-linecap: butt; stroke-dashoffset: 0; stroke-linejoin: miter; stroke-miterlimit: 4; fill: rgb(217,217,216); fill-rule: nonzero; opacity: 1;"  paint-order="stroke"  transform=" translate(-245.795, 11.200000000000001)" d="M 0.26 0 L 3.9 0 L 5.73 -4.86 L 15.65 -4.86 L 17.47 0 L 21.12 0 L 12.61 -22.4 L 8.77 -22.4 Z M 6.69 -7.94 L 10.69 -18.94 L 14.69 -7.94 Z M 27.26 0 L 30.72 0 L 30.72 -22.4 L 27.26 -22.4 Z M 49.66 0 L 53.12 0 L 53.12 -8.86 L 60.29 -8.86 C 65.38 -8.86 66.91 -13.18 66.91 -15.9 C 66.91 -19.74 64.86 -22.4 60.32 -22.4 L 49.66 -22.4 Z M 53.12 -11.94 L 53.12 -19.33 L 59.78 -19.33 C 62.02 -19.33 63.33 -17.89 63.33 -15.62 C 63.33 -13.34 62.02 -11.94 59.78 -11.94 Z M 83.81 0.38 C 90.53 0.38 94.62 -3.97 94.62 -11.2 C 94.59 -18.46 90.53 -22.78 83.81 -22.78 C 76.99 -22.78 72.93 -18.43 72.93 -11.2 C 72.9 -3.94 76.99 0.38 83.81 0.38 Z M 83.81 -2.82 C 79.3 -2.82 76.51 -5.98 76.51 -11.23 C 76.48 -16.45 79.3 -19.58 83.81 -19.58 C 88.22 -19.58 91.04 -16.42 91.04 -11.23 C 91.01 -5.95 88.22 -2.82 83.81 -2.82 Z M 106.27 0 L 109.44 0 L 115.23 -16.29 L 121.02 0 L 124.19 0 L 130.11 -22.4 L 126.66 -22.4 L 122.34 -4.93 L 116.64 -22.4 L 113.82 -22.4 L 108.13 -5.02 L 103.81 -22.4 L 100.35 -22.4 Z M 136.26 0 L 152.22 0 L 152.22 -3.07 L 139.71 -3.07 L 139.71 -9.66 L 151.52 -9.66 L 151.52 -12.74 L 139.71 -12.74 L 139.71 -19.33 L 152.22 -19.33 L 152.22 -22.4 L 136.26 -22.4 Z M 172.7 -5.57 L 174.82 0 L 178.37 0 L 176.13 -6.11 C 175.33 -8.35 174.59 -9.66 172.96 -10.37 C 175.65 -11.17 177.31 -13.25 177.31 -16.1 C 177.31 -20.32 174.91 -22.4 170.72 -22.4 L 159.42 -22.4 L 159.42 0 L 162.88 0 L 162.88 -9.18 L 168.29 -9.18 C 170.34 -9.18 171.52 -8.7 172.7 -5.57 Z M 162.88 -12.26 L 162.88 -19.33 L 170.59 -19.33 C 172.83 -19.33 173.73 -18.18 173.73 -16.03 C 173.73 -13.86 172.19 -12.26 169.95 -12.26 Z M 184.64 0 L 200.61 0 L 200.61 -3.07 L 188.1 -3.07 L 188.1 -9.66 L 199.9 -9.66 L 199.9 -12.74 L 188.1 -12.74 L 188.1 -19.33 L 200.61 -19.33 L 200.61 -22.4 L 184.64 -22.4 Z M 207.81 0 L 216.64 0 C 223.3 0 227.33 -4.22 227.33 -11.2 C 227.33 -18.18 223.3 -22.4 216.64 -22.4 L 207.81 -22.4 Z M 211.26 -3.07 L 211.26 -19.33 L 216.64 -19.33 C 221.06 -19.33 223.74 -16.16 223.74 -11.23 C 223.74 -6.24 221.06 -3.07 216.64 -3.07 Z M 244.38 0 L 248.03 0 L 249.86 -4.86 L 259.78 -4.86 L 261.6 0 L 265.25 0 L 256.74 -22.4 L 252.9 -22.4 Z M 250.82 -7.94 L 254.82 -18.94 L 258.82 -7.94 Z M 281.15 0.38 C 287.26 0.38 290.88 -2.88 290.88 -8.86 L 290.88 -22.4 L 287.3 -22.4 L 287.3 -9.02 C 287.3 -5.02 284.96 -2.82 281.15 -2.82 C 277.31 -2.82 274.98 -5.02 274.98 -9.02 L 274.98 -22.4 L 271.39 -22.4 L 271.39 -8.86 C 271.39 -2.88 275.07 0.38 281.15 0.38 Z M 305.28 0 L 308.74 0 L 308.74 -19.33 L 315.78 -19.33 L 315.78 -22.4 L 298.24 -22.4 L 298.24 -19.33 L 305.28 -19.33 Z M 333.6 0.38 C 340.32 0.38 344.42 -3.97 344.42 -11.2 C 344.38 -18.46 340.32 -22.78 333.6 -22.78 C 326.78 -22.78 322.72 -18.43 322.72 -11.2 C 322.69 -3.94 326.78 0.38 333.6 0.38 Z M 333.6 -2.82 C 329.09 -2.82 326.3 -5.98 326.3 -11.23 C 326.27 -16.45 329.09 -19.58 333.6 -19.58 C 338.02 -19.58 340.83 -16.42 340.83 -11.23 C 340.8 -5.95 338.02 -2.82 333.6 -2.82 Z M 351.62 0 L 355.07 0 L 355.07 -16.96 L 361.57 0 L 365.02 0 L 371.52 -16.9 L 371.52 0 L 374.98 0 L 374.98 -22.4 L 370.4 -22.4 L 363.3 -4.45 L 356.19 -22.4 L 351.62 -22.4 Z M 381.12 0 L 384.77 0 L 386.59 -4.86 L 396.51 -4.86 L 398.34 0 L 401.98 0 L 393.47 -22.4 L 389.63 -22.4 Z M 387.55 -7.94 L 391.55 -18.94 L 395.55 -7.94 Z M 414.91 0 L 418.37 0 L 418.37 -19.33 L 425.41 -19.33 L 425.41 -22.4 L 407.87 -22.4 L 407.87 -19.33 L 414.91 -19.33 Z M 432.77 0 L 436.22 0 L 436.22 -22.4 L 432.77 -22.4 Z M 454.3 0.38 C 461.02 0.38 465.12 -3.97 465.12 -11.2 C 465.09 -18.46 461.02 -22.78 454.3 -22.78 C 447.49 -22.78 443.42 -18.43 443.42 -11.2 C 443.39 -3.94 447.49 0.38 454.3 0.38 Z M 454.3 -2.82 C 449.79 -2.82 447.01 -5.98 447.01 -11.23 C 446.98 -16.45 449.79 -19.58 454.3 -19.58 C 458.72 -19.58 461.54 -16.42 461.54 -11.23 C 461.5 -5.95 458.72 -2.82 454.3 -2.82 Z M 472.32 0 L 475.78 0 L 475.78 -17.6 L 487.94 0 L 491.33 0 L 491.33 -22.4 L 487.87 -22.4 L 487.87 -6.62 L 476.77 -22.4 L 472.32 -22.4 Z" stroke-linecap="round" />
</g>
</g>
</g>
</svg>