<svg xmlns="http://www.w3.org/2000/svg" width="1600" height="900" viewBox="0 0 1600 900" fill="none">
  <g stroke="#7DD3FC" stroke-opacity="0.25" stroke-width="2">
    <path d="M160 180h260l80 80h240" />
    <path d="M320 640h220l120-120h260" />
    <path d="M1040 220h220l120 120" />
    <path d="M980 720h260l80-80" />
    <path d="M520 300h140l80-80h180" />
    <path d="M440 520h120l80 80h220" />
    <path d="M220 420h140l80-80h120" />
    <path d="M1240 420h160l120 120" />
  </g>
  <g fill="#7DD3FC" fill-opacity="0.35">
    <circle cx="160" cy="180" r="6" />
    <circle cx="420" cy="180" r="6" />
    <circle cx="500" cy="260" r="6" />
    <circle cx="740" cy="260" r="6" />
    <circle cx="320" cy="640" r="6" />
    <circle cx="540" cy="640" r="6" />
    <circle cx="660" cy="520" r="6" />
    <circle cx="920" cy="520" r="6" />
    <circle cx="1040" cy="220" r="6" />
    <circle cx="1260" cy="220" r="6" />
    <circle cx="1380" cy="340" r="6" />
    <circle cx="980" cy="720" r="6" />
    <circle cx="1240" cy="720" r="6" />
    <circle cx="1320" cy="640" r="6" />
    <circle cx="520" cy="300" r="6" />
    <circle cx="740" cy="220" r="6" />
    <circle cx="440" cy="520" r="6" />
    <circle cx="660" cy="600" r="6" />
    <circle cx="220" cy="420" r="6" />
    <circle cx="360" cy="340" r="6" />
    <circle cx="1240" cy="420" r="6" />
    <circle cx="1400" cy="540" r="6" />
  </g>
</svg>
